<?xml version="1.0" encoding="UTF-8" standalone="no"?>
<svg
   xmlns:dc="http://purl.org/dc/elements/1.1/"
   xmlns:cc="http://creativecommons.org/ns#"
   xmlns:rdf="http://www.w3.org/1999/02/22-rdf-syntax-ns#"
   xmlns:svg="http://www.w3.org/2000/svg"
   xmlns="http://www.w3.org/2000/svg"
   width="150mm"
   height="150mm"
   viewBox="0 0 150 150"
   version="1.1"
   id="svg4853">
  <defs
     id="defs4847" />
  <metadata
     id="metadata4850">
    <rdf:RDF>
      <cc:Work
         rdf:about="">
        <dc:format>image/svg+xml</dc:format>
        <dc:type
           rdf:resource="http://purl.org/dc/dcmitype/StillImage" />
        <dc:title></dc:title>
      </cc:Work>
    </rdf:RDF>
  </metadata>
  <g
     id="layer1">
    <path
       id="elev-0"
       d="m 120.06306,11.982864 c -0.66009,-0.470109 0.6601,-0.470095 0,0 z m -1.47198,0.24533 c -0.63742,-0.229696 0.63744,-0.229676 0,0 z m 1.28798,0.01227 c -1.07302,0.05435 0.42768,-0.639277 0,0 z m -0.73599,0.294396 c -0.66196,-0.342284 0.66199,-0.342268 0,0 z m 13.0638,0.551992 c -0.47834,-0.760848 0.64413,-0.591542 0,0 z m -12.51181,0.0028 c -1.44565,-0.714241 0.6536,-0.236619 0.92032,-1.137509 0.65861,-0.901532 1.76735,-1.393413 2.75992,-0.643955 1.17291,-0.52987 1.40467,-0.609434 2.75998,-0.337362 0.81766,-1.0850218 2.1143,0.484713 3.12794,0.367998 0.95566,0.528003 2.79349,-0.315681 1.04265,0.643974 -1.42561,0.176602 -2.56144,-1.4159 -3.98664,-0.797302 -0.58158,0.546211 -1.76097,-0.589493 -2.39199,0.337329 -1.03587,0.267106 -2.33179,-0.856312 -2.94394,0.52694 -0.48356,0.282733 -0.74544,0.89495 -1.28824,1.039887 z m 11.95982,0.240351 c -0.71588,-1.371135 0.38681,-1.960167 0.16498,-0.05914 z m -14.53577,0.216854 c -0.56141,-0.15135 0.39277,-0.40689 0,0 z m 15.82375,0.092 c -1.02454,-0.06741 0.72627,-0.889476 0,0 z m -16.19174,0.275996 c -0.63841,-0.2757 0.63838,-0.275734 0,0 z m 17.84771,0 c -1.56581,0.03688 0.58294,-0.674123 0,0 z m -18.03171,0.367994 c -0.5228,-0.10058 0.30341,-0.459488 0,0 z m 17.84771,0.487398 c -0.67584,-0.477616 -2.70281,-0.268583 -2.35514,-1.315413 0.80206,0.816258 2.04808,0.666773 3.09118,0.919991 -0.0439,0.336523 -0.50945,0.24899 -0.73604,0.395422 z m 1.65597,0.168859 c -5.37037,1.08893 2.4653,-1.243963 0,0 z m 0.91999,0.03373 c -0.73064,-0.406042 0.68677,-0.431633 0,0 z m -24.28761,0.321994 c -2.77531,0.208068 -0.0695,-1.069368 0,0 z m 2.94395,0.046 c -0.67598,-0.340035 2.03411,-2.36169 0,0 z m -2.02396,0.229996 c -1.47957,0.219316 0.5813,-0.805567 0,0 z m 1.10398,0.092 c -1.64382,0.01063 0.6602,-0.888111 0,0 z m 22.99963,0.289139 c -1.18852,0.267425 -1.45609,-1.630297 -0.36809,-0.276863 0.87168,-1.255805 2.48724,0.168007 1.59462,-0.196262 -0.38119,-0.402081 -0.91323,0.284465 -1.22653,0.473125 z m -21.89565,0.127561 c 0.0292,-0.951608 1.53649,-2.177344 2.20795,-3.097818 1.3734,-0.788275 0.37896,0.348408 -0.46711,0.841109 -0.47977,0.817032 -1.15095,1.532801 -1.74084,2.256709 z m -7.91187,0.319289 c -0.58476,-0.24728 0.44116,-0.706092 0,0 z m 31.4635,0.735989 c -0.43714,-0.816293 0.62134,-0.546039 0,0 z m -33.85547,1.908972 c 0.12589,-0.576187 0.53164,-2.548226 2.02397,-2.07623 0.97044,-0.15777 1.19453,-2.10118 2.66802,-1.672673 0.79328,-0.579694 1.55898,0.806859 2.78293,0.551927 0.68225,0.606453 3.17412,-0.633794 2.09297,0.239213 -1.09531,0.834915 -2.42475,-0.247946 -3.75233,-0.05503 -0.43964,-1.484567 -1.25979,0.214439 -2.13562,-0.306591 -0.85322,0.789133 -0.96914,2.059468 -2.43828,1.594651 -0.93721,0.22856 -0.51361,1.261516 -1.24166,1.724737 z m -0.55199,0.620991 c -0.76646,-0.238778 0.96067,-1.092181 0,0 z m -0.36799,0.377194 c -0.57493,-0.262992 0.43585,-0.445439 0,0 z m 37.1674,0.0368 c -0.44116,-0.706093 0.58476,-0.247277 0,0 z m -37.7194,0.588792 c -1.37803,-0.406226 0.88908,-0.566321 0,0 z m 39.19138,0.354195 c -1.29102,0.305619 -2.44732,-0.624128 -2.39179,-1.90902 -0.84433,-1.003292 -2.30292,-1.164244 -2.50264,-2.713998 0.68165,-0.3781 0.57501,1.763149 1.76643,1.655981 1.38543,0.463853 0.81755,1.880714 1.83997,2.575971 0.3266,0.154341 2.3667,-0.233262 1.28803,0.391066 z m -39.19138,0.409083 c -1.55182,-0.07522 0.69203,-0.502286 0.92,-1.284272 0.38628,-0.471595 1.75863,-2.317983 1.37757,-1.171786 -0.677,0.767117 -1.53266,1.748453 -2.29757,2.456058 z m -1.47197,0.303907 c -0.49672,-0.668598 1.1687,-1.189874 0,0 z m -0.36799,0.257595 c -0.59059,-0.164359 0.46906,-0.338889 0,0 z m -0.368,0.355728 c -0.56475,-0.09469 0.39034,-0.37518 0,0 z m -0.55199,0.582658 c -0.63838,-0.275727 0.6384,-0.275707 0,0 z m -0.18399,0.71759 c -1.01939,0.116911 0.29147,-1.103799 0,0 z m -0.368,0.386394 c -0.50048,-0.07988 0.25981,-0.48111 0,0 z m -0.73599,0.316884 c -1.361724,0.177855 0.30796,-0.867074 0,0 z m 44.1593,0.189109 c -0.67092,-0.670375 -0.0399,-1.61683 -0.73581,-2.437968 0.82272,-2.163249 -0.0403,0.313122 0.85864,1.103986 -0.32881,0.561313 0.16832,1.080229 -0.12283,1.333982 z m -46.551259,0.168665 c -0.637463,-0.181645 0.637453,-0.181659 0,0 z m 0.919986,-0.0044 c -1.076444,0.05148 0.249563,-0.846641 0,0 z m -2.02397,0.362152 c -1.238496,-0.529328 1.202767,-0.438652 0,0 z m 48.023233,0.163553 c -0.76625,-0.609683 0.76133,-0.738558 0,0 z M 95.407455,25.78266 c -0.66008,-0.470103 0.66008,-0.470103 0,0 z m 48.391235,0.183997 c -0.23067,-1.013489 1.18977,-0.458298 0,0 z m -48.575232,0.390994 c -0.961834,0.233998 0.109392,-1.02971 0,0 z m 47.839232,-0.01465 c -0.85264,-0.595377 1.21625,-0.154606 0,0 z m -47.471238,0.288862 c -0.520261,-1.483391 1.733444,-1.266766 2.576036,-1.462575 1.342676,-0.290618 3.163692,-0.338259 3.312112,-1.962705 0.61526,-0.438854 1.50211,-1.95352 1.8401,-1.318603 -0.91816,0.585969 -1.60984,1.420752 -1.83939,2.452785 -1.724592,1.21158 -3.731533,1.121483 -5.630281,1.625817 -0.0051,0.26939 -0.08562,0.466378 -0.258577,0.665281 z m -3.12795,0.101438 c -1.732629,-0.05877 0.793489,-0.795435 0,0 z m 0.55199,0.337328 c -0.979138,-0.04763 0.724016,-0.921742 0,0 z m 0.551992,0.01415 c -1.240102,-0.517935 1.203921,-0.42976 0,0 z M 93.199491,28.0612 c -0.384662,-0.690559 -2.697609,-0.561117 -1.839941,-1.174517 1.22148,0.296815 2.009883,1.188218 3.127957,0.184066 1.554665,-0.484005 0.747643,0.227613 -0.364099,0.551902 -0.234653,0.327602 -0.673163,0.15571 -0.923917,0.438549 z m -2.575959,0.665401 c -0.584751,-0.247293 0.441158,-0.70608 0,0 z m 0.367993,0.367993 c -1.006256,0.04399 0.337338,-0.920268 0,0 z m 0.183999,0.735989 c -0.666083,-0.452657 0.520052,-0.906714 0,0 z m 0.367993,0.551992 c -0.525658,-0.378055 0.272558,-0.891161 0,0 z m 0.183997,1.287981 c -0.766252,-0.609695 0.761338,-0.738542 0,0 z m 0.367995,0.735992 c -0.555635,-0.19762 0.370994,-0.754558 0,0 z m 0.367993,0.551989 c -0.52375,-0.173503 0.302718,-0.774033 0,0 z m 0.183997,1.103985 c -0.660083,-0.470107 0.660082,-0.470107 0,0 z m 56.855091,1.655977 c 0.11341,-2.085113 -0.79637,-4.069591 -1.85748,-5.703917 -0.99278,-1.463879 -2.92013,-2.047219 -3.87479,-3.311953 0.0818,-1.026326 0.64537,0.959887 1.68357,1.011975 1.4536,0.945928 2.88247,2.278721 3.40401,3.955952 0.64752,1.130681 1.23167,2.856228 0.64469,4.047943 z m -0.36799,0.404794 c -1.15121,0.140819 1.0619,-0.806014 0,0 z m -0.91999,4.747127 c 0.59107,-1.109953 1.57874,-2.564701 1.07568,-4.047929 0.37578,-1.415592 0.55799,1.607063 0.21239,2.207967 -0.25014,0.725312 -0.65863,1.429265 -1.28807,1.839962 z m -56.671093,0.367996 c -0.584753,-0.24728 0.441158,-0.706099 0,0 z m 0.367993,0.749615 c -1.520835,0.06433 0.722,-0.803574 0.367996,-2.037583 0.782645,-1.146902 1.621602,-2.802784 1.19594,-4.415938 0.421408,-0.894048 -0.541499,-1.931543 -0.670308,-2.943963 -0.866995,-1.114616 -0.537022,-2.749143 -1.522325,-3.863954 -0.936144,-1.397436 -0.0059,-1.068324 0.407876,0.183999 0.91268,1.404739 0.950984,3.114778 1.715746,4.600004 0.544513,1.495488 0.775047,2.993287 0.16102,4.489534 -0.465174,1.378993 -1.237123,2.705362 -1.655945,3.987901 z m -0.919985,0.920514 c -0.900475,-0.195691 0.495485,-1.551715 0,0 z m -0.919985,1.319827 c -1.54336,0.69815 0.805074,-1.838384 0.368001,-0.919994 -0.276183,0.255667 0.335822,0.776362 -0.368001,0.919994 z m -1.103982,1.108165 c -1.540336,-0.308169 1.236236,-1.128279 0.0849,-0.05016 z m -1.287979,0.225814 c -0.561406,-0.15135 0.392769,-0.406885 0,0 z m -0.367996,0.367995 c -0.638394,-0.275717 0.638395,-0.275717 0,0 z m 57.039087,0 c 0.3937,-1.040847 1.07688,-2.848708 1.7023,-4.139954 0.70453,-1.333619 2.32819,-1.076269 0.50606,-0.184004 -1.04103,1.201454 -1.0571,3.12638 -2.20836,4.323958 z M 87.679579,46.6168 c -0.572455,0.0019 -3.198818,-0.505349 -1.471975,-0.717161 0.854954,1.348036 2.1937,-1.115656 2.02396,-0.0195 -0.306571,0.174749 -0.278575,0.547656 -0.551985,0.736674 z m -4.783923,1.061521 c -0.660083,-0.470095 0.66008,-0.470109 0,0 z m 59.615044,0.321996 c -0.30156,-0.371827 0.58322,-2.046902 1.25147,-2.161977 -0.48917,0.714875 -0.81631,1.401194 -1.25147,2.161977 z m -0.55199,1.24198 c -1.46845,0.284239 -1.71945,-0.623395 -0.18399,-0.29015 1.96769,-1.469146 -0.32165,0.559549 0.18399,0.29015 z m -60.535032,0.296439 c -0.98643,0.004 1.171565,-1.216191 1.717305,-1.676413 0.812551,-0.397534 2.568474,-1.815584 2.340308,-0.735994 -1.03343,0.438965 -2.089578,0.672341 -2.953676,1.51448 -0.487807,0.152308 -0.628494,0.731573 -1.103937,0.897927 z m 59.063062,0.347552 c -0.43236,-0.378844 0.62533,-0.23803 0,0 z m -59.79905,0.046 c -1.059972,0.461867 0.249983,-0.916665 0,0 z m 58.69507,0.321995 c -0.73343,-0.868719 1.29426,-0.480538 0,0 z m -60.903034,2.453296 c -0.60062,0.233064 -0.429628,-1.878748 0.551992,-2.023983 1.078984,-0.579739 1.599459,-0.299021 0.184005,0.341167 -1.12744,0.04775 -0.549548,1.234364 -0.735997,1.682816 z m 59.431054,0.858655 c -0.12852,-0.814231 -0.27585,-2.933025 0.73605,-3.173952 -0.35411,0.629984 -0.70662,1.947124 -0.55199,2.989961 z m -61.639018,1.747975 c -0.638403,-0.275714 0.638395,-0.275722 0,0 z m -0.183999,0.367996 c -0.516141,-0.09352 0.289803,-0.466841 0,0 z m -0.367993,0.367993 c -0.561398,-0.151357 0.392768,-0.406884 0,0 z m -60.167042,2.74156 c -2.07308,0.02135 0.54864,-0.937988 0,0 z m 3.679942,0.294394 c -0.908455,-0.551649 -1.875366,-0.375111 -2.71396,-0.551974 -1.660343,-0.663959 1.644084,0.08116 1.241985,-0.153318 0.463271,-0.152842 1.847757,0.295291 1.471975,0.705292 z m 51.703176,0 c -0.660085,-0.470093 0.66008,-0.470107 0,0 z m 0.919986,-0.133816 c -1.09346,-0.219358 1.679234,-0.729644 2.023964,-1.246161 1.260938,-0.715936 2.715964,-1.747123 3.127912,-3.035972 0.504818,-1.004655 0.714164,-2.615277 0.741096,-0.551976 -0.722503,1.388335 -1.855708,2.984251 -3.501007,3.687683 -0.71207,0.521983 -1.528699,0.995868 -2.391965,1.146426 z m -1.287981,0.409813 c -0.638395,-0.275717 0.638394,-0.275717 0,0 z m -48.943219,0.460015 c -0.695903,0.0753 -3.187886,-0.694481 -1.471988,-0.73593 0.229357,0.520721 1.927951,-0.01643 1.471988,0.73593 z m 48.207233,0.24533 c -0.564769,-0.09467 0.390342,-0.375195 0,0 z m 64.582965,0.490659 c -0.6366,-0.379325 -2.58472,-1.317305 -1.10396,-1.856697 1.85913,-0.771769 2.66052,-2.593158 3.31157,-4.399233 1.44647,-1.357916 0.19627,0.185552 -0.18403,1.103987 -0.28078,1.740903 -1.98748,2.944302 -3.42234,3.863962 0.26387,0.487003 1.76594,0.749464 1.39876,1.287981 z M 13.528761,60.807869 c -1.728671,-0.133122 0.923266,-0.459203 0.735992,-1.537697 1.128541,-0.991198 -0.340087,1.377989 -0.735992,1.537697 z m -1.655973,0.363612 c -1.222383,-0.204105 0.749428,-0.715031 0,0 z m 0.55199,0.355729 c -1.076336,-0.292859 1.006332,-0.889915 0,0 z m 55.19912,0.594927 c -0.638394,-0.275717 0.638395,-0.275717 0,0 z m 67.526922,0.275994 c -0.92753,-1.914464 0.47213,-2.225 0,0 z m -67.710918,0.092 c -0.531514,-0.110765 0.322032,-0.4489 0,0 z m 67.342918,0.275995 c -1.16731,-0.145801 0.72847,-0.621641 0,0 z M 23.464603,63.13412 c -0.660081,-0.470101 0.660081,-0.470101 0,0 z m 43.423306,0 c -1.19947,-0.0833 0.735989,-0.830609 0,0 z m -55.75111,0.306663 c -2.2893213,-0.846069 0.717146,0.257178 0.092,-1.410658 -0.115435,-1.938269 0.990742,1.164302 -0.092,1.410658 z m 12.695797,-0.03067 c -0.638394,-0.27572 0.638396,-0.275717 0,0 z M 9.6648224,63.538912 c -1.5342528,-0.401093 0.9635216,-0.628587 0,0 z M 133.67884,63.68611 c 0.0635,-1.068467 1.28579,-0.966444 0,0 z m -109.294252,0.092 c -0.638397,-0.275717 0.638396,-0.275717 0,0 z m 0.367994,0.321998 c -0.730642,-0.406053 0.68678,-0.431623 0,0 z m 36.431419,0.01532 c -1.172411,-0.108428 0.668761,-0.414147 0,0 z m -35.695431,0.30666 c -0.660081,-0.470101 0.660081,-0.470101 0,0 z m 33.85546,0.367996 c -0.66008,-0.470109 0.660083,-0.470096 0,0 z M 7.8248517,65.026648 c -0.9761921,-0.103241 -3.1190141,0.01236 -1.2879795,-0.543235 1.0303995,1.018712 2.1864789,-1.202129 2.3919604,-0.398642 -0.3629692,0.343352 -0.8030771,0.523901 -1.1039809,0.941877 z m 50.0472033,0.03943 c -1.172535,-0.117835 0.666454,-0.483624 0,0 z m -1.287981,0.337328 c -1.9528,0.235127 0.08745,-0.6974 0,0 z M 5.6168872,66.139398 c -1.0371976,0.238061 0.2347425,-2.18908 0,0 z m 50.9671868,0.132181 c -1.701093,0.162025 -0.987867,-0.600631 0.331195,-0.561433 0.618276,-0.624131 2.450356,0.04193 3.164753,-1.103977 1.020138,0.375516 1.78223,-1.018145 2.391973,-0.551958 1.81015,0.510059 2.77763,-1.10046 4.599911,-0.617598 1.017471,-0.881488 1.178491,-2.350458 2.39196,-3.001081 0.717045,0.288202 1.809949,-1.867675 1.839947,-0.780595 -0.779476,0.52651 -1.338588,1.333476 -2.29998,1.27122 -0.471768,1.062638 -1.180211,2.604547 -2.299992,2.910522 -1.583383,-0.430361 -2.962523,1.301456 -4.599953,0.414636 -0.715859,0.975702 -1.409644,0.335762 -2.236234,0.906849 -0.81906,0.826892 -2.021285,0.490191 -2.915619,0.745228 -0.09518,0.135986 -0.193309,0.31773 -0.367961,0.368187 z m -2.39196,0.542475 c -1.199473,-0.08329 0.735981,-0.830612 0,0 z m -18.215711,0.275995 c -0.638394,-0.275717 0.638395,-0.275717 0,0 z m 17.111729,0 c -0.561406,-0.151353 0.392769,-0.406887 0,0 z m -15.455754,0.337327 c -1.175896,-0.09392 0.667057,-0.422753 0,0 z m 14.719765,0 c -1.185741,-0.05674 0.659313,-0.445158 0,0 z m 78.934737,0.122664 c 0.0694,-1.482625 1.40034,-2.634829 2.20794,-3.863954 -0.28118,1.269265 -1.62876,2.45454 -2.20794,3.863954 z m -93.654502,0.742336 c -1.759024,-0.266491 -3.273981,-0.892384 -4.967931,-1.202248 -0.924475,0.557895 -1.953844,-0.123412 -2.943968,-0.19716 -1.965934,-1.12341 -4.408551,-1.296463 -6.071904,-2.779844 -1.381272,-0.821026 -2.155355,-2.512119 -1.655987,-4.106998 0.332562,1.222201 0.04611,2.783203 1.361585,3.49595 0.926539,0.929595 2.25763,1.514065 3.514349,1.840011 1.476616,0.345419 2.665209,1.538808 4.32395,1.379937 0.945145,0.622392 2.71335,-0.450676 3.495948,0.64399 1.360217,-0.106944 2.547657,0.952696 3.679946,0.110453 1.209347,0.09522 1.083424,0.902134 -0.183983,0.357995 -0.235132,0.104462 -0.302569,0.362817 -0.552005,0.457914 z m 4.967919,0.177652 c -1.19947,-0.0833 0.735989,-0.83062 0,0 z m 5.703909,0 c -1.75042,0.106704 0.400722,-0.917517 0,0 z m 82.246694,0.092 c -0.93092,0.08854 0.64647,-1.429893 0,0 z m -0.368,0.64399 c -0.71872,-0.138282 0.62428,-1.053002 0,0 z m -81.878694,0.02429 c -2.153663,-0.05751 -4.310467,0.09358 -6.415378,-0.208269 -0.888903,-0.194287 -1.738622,-0.644732 -2.441874,-0.735968 0.32857,-1.192152 1.269166,0.727575 2.23334,0.224904 2.044438,0.655648 4.429659,0.191399 6.623896,0.339926 1.352595,-0.09565 2.320621,-0.860235 3.725937,-0.749099 0.810641,-0.637479 1.893067,-0.955569 2.926267,-1.287986 1.039035,-0.678813 -0.653957,1.204034 -1.408287,0.735973 -1.556676,1.174548 -3.451214,1.082323 -5.243901,1.680519 z m 81.694694,0.527688 c -0.43644,-0.736907 0.62995,-0.603787 0,0 z M 3.4089223,70.309988 C 2.926384,68.840323 3.9215311,67.333465 4.696891,66.139379 5.3313584,65.897021 4.0132211,67.600186 3.8557798,68.286005 3.7356013,68.979975 3.4949871,69.573412 3.4089223,70.309988 Z m 0,0.735991 c -0.7041866,-0.811757 0.5497936,-0.910277 0,0 z M 128.89493,71.413973 c -0.19073,-1.077064 1.37524,-1.062379 0,0 z M 4.1449106,71.781968 c -0.5898835,-0.248605 0.407788,-0.426262 0,0 z M 126.87095,78.957862 c -0.47834,-0.760841 0.64413,-0.59155 0,0 z m -0.55199,0.919988 c -0.83241,-1.107429 0.79038,-2.487784 0.1843,-3.755697 0.60639,-1.107783 1.01155,-2.255221 1.39758,-3.420199 0.80177,-1.478931 0.90472,-0.583105 0.0429,0.36799 0.0773,1.582087 -1.57655,2.6837 -0.95059,4.231939 -0.58286,0.78477 -0.50102,1.594443 -0.67414,2.575967 z M 4.3289077,80.613837 c -0.5780037,-0.988854 0.1837052,-3.247467 0.026289,-0.919986 -0.017785,0.305821 0.036393,0.618559 -0.026289,0.919986 z m 0.1839968,1.47198 c -0.6949133,-0.877673 0.5258549,-1.298157 0,0 z m 121.2540655,0.092 c -0.26613,-0.729705 1.07658,-2.708177 0.36818,-0.643996 0.0629,0.307178 -0.0443,0.556392 -0.36818,0.643996 z M 4.3289077,82.637809 c -0.5237491,-0.1735 0.302713,-0.774044 0,0 z M 117.6711,83.373795 c -1.18398,0.03644 0.0562,-0.554678 0,0 z m -113.8941835,0.046 C 1.8620711,83.233577 2.983674,82.653364 4.1449104,83.067148 4.5388736,83.354737 3.9386872,83.39167 3.7769165,83.419798 Z m 0.735988,0.01254 C 4.3371712,82.690146 5.5756423,81.395688 4.7122291,80.429829 4.5133146,78.302984 5.3718208,76.572657 5.2489732,74.541911 4.8866837,74.029064 4.822181,72.037217 4.6969915,71.919959 c 0.9808014,0.673505 0.3391988,2.160828 0.8350541,3.173958 -0.2515198,2.238438 -0.7659343,4.497461 -0.1826281,6.807901 -0.3218691,0.484743 -0.4288957,1.119875 -0.836513,1.530522 z m -2.3919616,0.507597 c -0.8072133,-0.974301 1.0340043,-0.467585 0,0 z M 116.01513,84.29381 c -2.07859,0.18566 2.87799,-2.094228 0,0 z m 2.75995,0 c -1.67461,-0.903923 -0.0869,-1.31658 0,0 z m -4.59993,0.183996 c -0.93017,-0.112808 0.73092,-0.562081 0,0 z m 0.91999,0 c -1.68598,0.07626 0.32499,-0.645755 0,0 z m 4.96792,0.137999 c -2.35182,0.201366 -0.13829,-0.871323 0,0 z m 1.28798,-0.07667 c -1.77515,0.198107 0.94291,-0.755806 0,0 z m 1.83997,0.03067 c -1.95959,0.04913 -1.53363,-0.472993 0.184,-0.367781 0.9112,-0.422632 1.42618,-1.619882 2.20798,-1.931966 -0.62393,0.983448 -1.29041,1.741029 -2.39198,2.299747 z M 1.2009576,85.21379 c -0.66112455,-1.153047 0.8187125,-2.1219 0,0 z M 113.25517,85.765782 c -0.74587,-0.649708 1.88359,-2.23643 0,0 z M 1.3849546,85.949781 c -1.36335495,-0.521692 0.9121976,-1.273445 0,0 z M 111.2312,88.157748 c 0.13957,-0.700646 0.80912,-2.212967 1.6559,-2.207988 -0.67396,0.591177 -1.00666,1.531604 -1.6559,2.207988 z M 0.64896635,92.75768 c -1.29829953,-1.647479 0.29669332,-3.587766 -0.1226652,-5.51992 -0.033056,-1.871007 0.75115195,-0.837891 0.34609352,0.551992 0.25379913,1.624785 -1.01466273,3.240164 -0.0394489,4.783928 z M 109.57523,94.965646 c -0.72546,-1.650598 -0.48873,-3.939641 0.18488,-5.565918 1.15751,-1.416912 1.45266,-1.151265 0.27601,0.229995 -0.71647,1.29377 -0.5845,3.306746 -0.45997,4.875934 0.3151,-0.02191 0.21581,0.42499 -8e-4,0.459989 z M 2.6729341,95.088312 c -0.518183,-0.495485 -2.3246647,-2.579645 -1.2879738,-2.186061 0.2608145,0.77195 1.4246946,1.610124 1.2879738,2.186061 z m 0.7359882,0.613323 c -1.1814765,-0.22542 0.2619783,-0.904952 0,0 z M 109.39123,96.805619 c -0.48775,-0.902263 1.22976,-2.642901 0.18401,-0.551997 -0.19696,0.151984 0.013,0.400018 -0.18401,0.551997 z M 6.3528752,98.0936 c -1.3056635,-0.957394 0.5172826,-0.936929 0,0 z m 0.5519912,0.735989 c -1.0966363,-1.300686 0.4881139,-0.710925 0,0 z m 0.3679941,0.183999 c -0.6433174,-0.234246 0.4449689,-0.359108 0,0 z m 11.0398235,0.367993 c -0.661979,-0.342278 0.661982,-0.342275 0,0 z M 8.0088488,99.749574 c -0.6619822,-0.342278 0.6619822,-0.342278 0,0 z M 8.56084,100.11757 c -0.6600759,-0.470104 0.6600759,-0.470104 0,0 z m 21.343662,1.47198 c -1.384872,-0.55714 -2.514134,-1.1513 -4.047937,-1.2882 -1.42085,-0.459145 -2.781107,-1.076291 -4.41593,-0.920001 -0.941681,-0.746514 -2.994596,-0.835182 -4.047939,-0.367943 -2.278241,-0.07472 -4.087943,1.304074 -6.439895,0.705506 C 8.8443421,99.896376 7.3447092,98.863101 6.4678721,97.173618 5.6654107,96.498142 3.8043773,96.862222 3.7769149,95.775279 c 1.3556588,0.673764 3.255746,0.69601 3.753545,2.502321 1.8440471,1.487963 4.5021131,1.208553 6.7342991,1.042572 1.89076,-0.955929 3.940566,-0.85357 6.150768,-0.858642 1.394408,0.945211 3.191121,0.351144 4.521079,1.241917 1.745078,0.364113 3.619952,0.742893 5.151932,1.702273 z m 79.302738,3.12795 c -0.47207,-2.52919 -1.27889,-5.183836 -0.31026,-7.727884 0.52854,0.204576 -0.37389,2.162101 -0.0614,3.127954 -0.25318,1.64867 0.68216,2.91393 0.552,4.41594 z m -0.73599,0.91999 c -0.67382,-0.92974 1.34217,-1.64641 0,0 z m -51.335184,0.12267 c -1.457256,-1.15298 -3.505763,-0.17565 -5.151921,-0.99669 -1.171207,-0.24879 -2.078958,-0.33454 -2.943958,-0.67108 -0.748689,-0.56477 -2.20508,-0.39328 -3.127947,-0.47843 -1.699813,-0.33337 -3.747817,0.64363 -5.519909,-0.18417 -2.388481,-0.24893 -4.345771,-1.51921 -6.623891,-2.02355 -0.860952,-0.22749 -2.033162,0.0733 -3.127952,-0.36799 -1.262666,-0.48855 1.240988,-0.2389 1.839973,-0.01 2.16326,-0.34264 4.256762,1.46121 6.439932,1.70414 1.956305,0.72992 4.165857,0.78476 6.255909,0.44117 1.33386,0.35127 3.189772,-0.24073 4.415938,0.90332 1.869527,-0.17148 3.77008,1.21288 5.703906,0.6077 0.557289,0.28445 1.933675,0.37098 1.83992,1.07558 z m 51.887174,0.61332 c -0.82197,-0.57984 0.33526,-1.16285 0,0 z m -49.495211,0.046 c -0.870812,0.29303 -3.239402,-0.9738 -1.287983,-0.48771 0.373525,0.43004 1.737992,-0.31563 1.287983,0.48771 z m 0,0.68999 c -0.66199,-0.34228 0.661983,-0.34229 0,0 z m 48.207231,0 c -1.26822,-0.12095 0.74834,-0.50257 0,0 z m -47.839238,0.36799 c -0.660069,-0.47009 0.66007,-0.47009 0,0 z m 47.103248,0 c -0.66006,-0.47013 0.66007,-0.47006 0,0 z m -0.36799,0.55199 c -0.43646,-0.73692 0.62997,-0.60377 0,0 z m -0.55199,1.47199 c -0.6601,-0.47011 0.66008,-0.47012 0,0 z m -0.736,0.092 c -0.15691,-0.25672 0.38945,-1.49304 0.70377,-2.30012 0.66292,-1.08771 1.72259,-1.45519 2.79135,-0.73585 -0.85314,0.41341 -1.90334,-0.61633 -2.57594,0.83662 -0.4045,0.8385 -0.24088,1.63527 -0.91918,2.19935 z m 0,0.64399 c -0.37769,-0.72592 0.78779,-0.52326 0,0 z m -37.1674,1.60998 c -1.208021,-1.14238 -2.304502,-2.48172 -4.231938,-2.71376 -1.318938,-0.97858 -3.246017,-1.22671 -4.170614,-2.75988 1.611595,1.0991 3.583202,2.20361 5.45861,2.85227 1.132589,0.35313 2.500699,1.68337 2.943942,2.62137 z m 1.103982,1.47197 c -1.049782,-0.83805 -0.832162,-1.83932 0.07669,-0.32197 l 0.06133,0.184 z m 0.183997,0.41399 c -0.555644,-0.19759 0.371015,-0.75457 0,0 z m 0.919985,0.92 c -1.786128,-1.07901 0.34489,-1.05891 0,0 z m 32.751476,1.59464 c -0.74171,-0.92669 1.27794,-1.32012 1.22707,-2.14663 -0.30477,-1.13535 0.50544,-2.20234 0.0817,-3.12793 -0.13504,-1.24974 1.06037,-0.87129 0.2923,-0.18394 0.20994,1.02177 -0.0973,2.07087 -0.12839,3.31192 -0.20731,1.17301 -1.35812,1.08241 -1.47263,2.14658 z m -0.55199,0.79732 c -0.44547,-0.88242 0.99226,-0.73647 0,0 z m -31.2795,1.47198 c -0.115724,-1.03268 -0.03854,-2.21124 -0.245317,-3.49595 -0.702217,-1.91416 0.752933,0.0348 0.355833,0.91993 0.0618,0.80188 0.413591,1.92603 -0.110516,2.57602 z m 31.0955,1.19598 c -0.38818,-0.93099 0.62089,-0.20903 0,0 z m -29.623523,0.27599 c -1.248423,-0.95279 -1.314362,-1.56517 0.184007,-0.36798 v 0.184 z m 1.471975,0.64399 c -1.247862,-0.90035 -1.370851,-1.70258 8e-6,-0.3751 0.09979,0.0887 0.166603,0.30982 -8e-6,0.3751 z m 28.519548,1.012 c -0.44115,-0.7061 0.58474,-0.2473 0,0 z m -27.415563,0.55199 c -0.152115,-0.85086 -1.646124,-1.79203 0.01363,-0.91995 0.28035,0.26851 0.215249,0.65772 -0.01363,0.91995 z m 0.367993,2.75996 c -0.146275,-0.52291 -0.21372,-3.1602 0.294375,-2.39201 0.08231,0.7306 0.02336,1.68363 -0.294375,2.39201 z m 27.59956,2.39196 c -0.4173,-1.24164 0.63036,-0.95043 0,0 z m -23.367629,3.31195 c -0.584745,-0.24729 0.441153,-0.70606 0,0 z m 21.527659,3.67995 c -0.16724,-0.93667 2.09101,-1.69854 0.71666,-2.94395 -0.29087,-2.04043 0.81103,-4.16115 0.0806,-6.25587 0.32819,-1.3656 -0.26485,-2.68051 -0.24592,-3.93972 0.32923,-1.10122 -1.29615,-2.47132 -0.0293,-3.60421 1.13874,-1.30218 -0.55182,0.89517 -0.21579,1.65595 1.15138,1.25256 0.0767,2.42669 0.89016,3.86388 -0.29783,2.23236 0.69396,4.57268 -0.3169,6.62391 -0.11287,0.82596 0.30598,1.94038 0.53209,2.94395 -0.24742,0.70751 -1.05256,1.01746 -1.4116,1.65606 z m -13.615784,1.10398 c -0.82282,-0.55347 0.829114,-0.59919 0,0 z m 12.143804,1.47197 c -0.453182,-0.58827 0.7726,-2.72625 0.91993,-2.11597 -0.53658,0.603 -0.53248,1.44367 -0.91993,2.11597 z m -1.10398,0.91999 c -0.52423,-0.74725 1.49155,-0.76122 0,0 z m -2.391963,0.368 c -0.971042,-0.56179 2.18122,-0.92046 0.183999,-0.18398 z m -1.103982,0.36799 c -0.836631,-0.75043 1.715339,-0.39036 0,0 z m -1.103982,0.82799 c -2.100903,0.33069 -3.568022,-1.06524 -5.335921,-1.74798 -1.361583,-0.9274 0.112631,-3.26945 -1.839999,-3.58791 -1.229109,0.0114 -2.094675,-0.68707 -3.311951,-1.07295 -1.42779,0.0342 -2.807912,-0.52985 -3.12792,-2.14666 -1.602441,-1.76187 -3.302077,-3.84667 -4.967944,-5.7038 0.829114,0.33383 1.958657,1.82973 2.826885,2.75996 0.815639,1.48143 2.577052,2.27374 2.950636,4.04796 1.235676,0.78085 2.904797,0.55919 4.158334,1.47167 1.362853,0.1535 3.674507,0.96901 2.943929,2.94403 0.08133,1.5337 2.170404,1.28066 2.943971,2.33061 0.939247,0.0384 2.209409,0.6254 3.127955,0.42934 l -0.183997,0.184 z"
       style="fill:none;stroke:#000000;stroke-width:0.2;stroke-miterlimit:4;stroke-dasharray:none;stroke-opacity:1" />
  </g>
</svg>
