<?xml version="1.0" encoding="UTF-8" standalone="no"?>
<svg
   xmlns:dc="http://purl.org/dc/elements/1.1/"
   xmlns:cc="http://creativecommons.org/ns#"
   xmlns:rdf="http://www.w3.org/1999/02/22-rdf-syntax-ns#"
   xmlns:svg="http://www.w3.org/2000/svg"
   xmlns="http://www.w3.org/2000/svg"
   width="150mm"
   height="150mm"
   viewBox="0 0 150 150"
   version="1.1"
   id="svg4237">
  <defs
     id="defs4231" />
  <metadata
     id="metadata4234">
    <rdf:RDF>
      <cc:Work
         rdf:about="">
        <dc:format>image/svg+xml</dc:format>
        <dc:type
           rdf:resource="http://purl.org/dc/dcmitype/StillImage" />
        <dc:title></dc:title>
      </cc:Work>
    </rdf:RDF>
  </metadata>
  <g
     id="layer1">
    <path
       id="elev-1000"
       d="m 106.41048,24.494681 c 1.56012,-0.722466 -1.01519,-1.663846 -0.51471,5e-5 0.15353,0.107683 0.35901,0.08451 0.51471,-5e-5 z M 91.972843,123.30122 c 2.006505,-0.84558 4.363099,-0.48988 6.37857,-1.30342 0.841954,-0.51274 1.268539,-1.25019 0.224417,-1.8245 -0.3868,-1.46751 1.122971,-2.27504 1.61911,-3.3121 -0.12415,-1.09749 1.50996,-1.15912 1.28346,-2.39494 0.47625,-0.82251 -0.0986,-2.64555 1.47243,-2.09268 -0.0118,-1.35073 -0.39495,-2.94963 0.98959,-3.79221 0.50797,-1.56052 0.9676,-4.00819 2.8727,-4.2605 1.60405,-1.51684 -1.22736,-3.28213 -0.92036,-5.069802 -0.0334,-1.491544 -1.01522,-2.846623 -0.91954,-4.23431 1.52718,-0.309761 0.23071,-2.348349 1.65644,-3.008717 1.29898,-0.872562 0.24968,-2.147263 -0.7903,-2.562849 -1.51778,-0.953842 -0.97474,-2.58834 -0.26318,-3.86396 0.56118,-1.090818 0.076,-2.977687 1.78934,-2.93997 1.89965,0.482388 3.7778,-0.490138 5.70427,-0.669991 1.22507,-1.057797 2.98362,-1.951832 4.41527,-0.669489 1.03686,-0.449918 2.09429,0.161518 2.81779,0.783654 0.26242,-1.015855 0.14561,-2.324629 1.41444,-2.828116 0.61944,-1.701307 1.35814,-3.626604 1.73289,-5.267777 -0.95392,-1.721921 0.68998,-3.260489 0.509,-4.967936 0.63538,-0.751514 -1.51665,-2.218163 0.33159,-2.137619 2.04825,0.267248 -1.08662,-2.152075 1.1044,-2.374278 1.7126,-0.27867 1.59546,-2.165927 2.29042,-3.215957 0.0734,-1.056267 -2.07239,-2.508422 -0.0823,-2.634904 1.00726,-0.660307 2.24917,-0.760859 2.45682,-2.149136 1.0032,-0.514247 1.51106,-2.017056 -0.0863,-2.02393 -1.16003,-1.308584 1.21109,-1.502167 2.04512,-1.672217 1.09839,-0.564129 1.73505,-1.76948 0.71776,-2.743607 -0.94446,-0.784784 -0.43582,-2.228332 0.75514,-1.264666 1.48538,0.812215 2.3487,-0.649261 3.12787,-1.574708 0.90615,-0.964499 2.84357,-0.162316 2.76003,-1.915509 0.38348,-1.004067 2.20372,-1.18994 1.24903,-2.604984 -0.62145,-1.124765 -1.92215,-2.075614 -0.8796,-3.422415 1.3803,-1.322509 1.25591,-3.561604 0.36775,-5.13965 -1.78518,-1.094068 -1.7268,-3.397631 -2.04617,-5.237771 0.0331,-1.85956 0.89236,-4.225686 -0.71395,-5.581255 -1.33978,0.44022 -1.71421,-0.794321 -2.20818,-1.517943 -1.57452,-0.419104 -2.48912,-2.105408 -4.15832,-2.468679 -1.32802,-0.517626 -1.48208,-2.728946 -2.86896,-2.760006 -0.79838,1.699353 -3.25546,0.436081 -4.19697,2.078063 -1.21138,0.484648 -1.60569,1.633442 -2.50237,2.521855 -1.07034,0.555017 -2.7306,0.415168 -3.58263,1.655988 -1.68196,1.162821 -3.78268,0.678207 -5.50678,1.518114 -1.75805,0.210407 -3.22486,1.375103 -4.96783,1.597633 -1.82779,0.472993 -1.55138,-2.452287 -3.31186,-1.660739 -2.16326,0.425149 -3.44885,2.612938 -5.704031,3.020132 -1.54227,0.703403 -3.298346,1.401739 -4.502976,2.516846 -0.603689,1.588447 1.474611,2.547202 1.109957,4.23195 -0.136774,2.278806 1.953387,4.199519 0.676568,6.439873 -0.363286,1.665986 -0.19776,3.415234 -1.114869,4.967931 -1.201037,2.328423 -2.522786,4.574442 -3.905123,6.808165 -0.576154,1.834817 -1.667124,3.482904 -1.314265,5.519896 -0.202832,1.612302 1.480926,2.594817 2.005187,3.679923 -0.644189,1.850208 -0.0955,4.766278 -2.522601,5.381906 -1.572508,0.70372 -4.036457,-0.888106 -4.783936,1.425908 -0.84345,1.483543 -2.478874,3.103621 -4.231931,2.821297 -1.715577,-0.890365 -3.826222,-1.057809 -5.703925,-0.590579 -2.033817,0.504923 -4.189161,0.206489 -6.255906,0.688329 -2.00343,0.198295 -3.969345,1.537103 -5.887958,0.252908 -2.48118,-0.242753 -5.039762,-0.914546 -7.55383,-0.412674 -2.613848,-0.448966 -4.974058,1.354225 -7.530722,1.684711 -1.525476,0.740455 -3.177479,1.571691 -4.783957,0.554077 -1.532856,-7.94e-4 -2.969207,-0.861674 -4.415936,-0.875223 -1.10804,0.759169 -2.432367,1.383652 -3.679941,0.454522 -2.42284,-0.278069 -5.013942,-0.89612 -6.807891,-2.56654 -0.630026,-0.766792 -1.859375,-0.848775 -1.358454,-2.195176 -0.03323,-1.62609 -1.492594,-1.759707 -2.689447,-2.255301 -1.561133,-1.373462 -3.562175,-1.655286 -5.519859,-1.05437 -1.700606,-0.07084 -3.564702,-0.07843 -4.62446,1.469573 -0.894326,0.406977 -2.217349,1.002324 -1.324788,2.023943 -1.134244,1.673064 -0.801121,3.942543 -1.8346684,5.703978 -0.381145,1.072679 -0.572734,2.025253 -0.45809,3.127957 -0.3940861,1.486376 -0.4483706,3.061986 -1.8391492,4.047924 -0.058712,1.167844 -0.5610198,2.55548 0.88124,3.057226 -0.4127272,1.119915 1.0262881,1.677275 1.1148063,2.830782 1.0605793,1.643909 3.1197243,2.528157 3.8531243,4.25078 1.415453,1.026379 2.064724,3.10071 4.04794,3.115691 1.333606,0.937051 2.445727,2.297975 4.231981,1.862434 1.231471,0.120591 2.644912,0.196683 3.495949,-0.648801 2.786225,1.752285 6.14212,1.855578 9.199883,2.828211 1.18799,0.818522 2.53682,-0.142807 3.863941,0.422809 1.5006,0.08685 2.922717,0.771311 4.337079,0.86514 2.937631,-0.08305 5.821397,-0.767353 8.726723,-0.846045 0.696788,2.02158 3.215177,1.17171 4.783904,2.03729 2.137058,-0.0874 3.369287,2.25615 5.519912,1.70623 2.767696,-0.17315 3.816853,2.8449 6.072032,3.7445 1.721667,1.20526 2.994279,2.93711 4.783981,4.11461 1.411809,1.27549 3.156011,1.90271 4.599948,3.08227 2.074892,0.82868 3.398925,2.93603 4.381405,4.74524 0.04252,1.81911 2.448091,0.93826 3.346431,2.0767 1.347989,0.80961 1.764819,2.84201 3.679971,2.82197 1.291156,0.25287 2.354537,-0.60653 3.556674,0.069 z"
       style="fill:none;stroke:#000000;stroke-width:0.2;stroke-miterlimit:4;stroke-dasharray:none;stroke-opacity:1" />
    <path
       id="elev-2000"
       d="m 93.525024,110.97341 c 1.062009,-1.13167 2.614957,0.29816 3.538442,-1.15813 0.345104,-1.20382 1.773444,-0.008 1.757111,-1.41789 0.774603,-1.38942 2.441223,-1.92629 3.409793,-3.12796 -0.34008,-0.90446 -0.58254,-2.34317 0.90514,-2.27227 1.6656,0.048 1.60921,-2.02996 1.00706,-3.063462 -0.21581,-2.460921 -1.86413,-5.082654 -0.22542,-7.359883 0.71573,-1.144473 0.54866,-2.174716 -0.35469,-3.127899 -0.36876,-1.212812 -0.88522,-2.479386 -0.2975,-3.679951 -0.0697,-0.937615 1.45104,-1.339705 0.96405,-2.575836 -0.50696,-1.037391 0.21468,-2.462654 1.53528,-1.839986 0.59681,-0.99745 1.90561,0.630653 2.34042,-0.818806 0.95088,-0.163928 1.93901,-0.242075 2.75953,-0.767175 1.78199,1.392705 3.32957,-2.128645 5.33625,-0.856361 1.38333,0.41018 1.6867,-0.316413 1.8406,-1.538169 1.6074,-0.944374 1.82252,-2.828123 1.79881,-4.483677 -0.7458,-2.427972 0.93389,-4.751498 0.77742,-7.19342 1.07357,-0.633156 -0.21262,-1.754407 0.88428,-2.558433 0.34044,-1.195978 -0.60432,-3.697396 1.50558,-3.343826 1.69131,-0.412019 -1.30984,-1.483754 -0.18398,-2.568114 1.16807,-1.03315 4.23342,-0.03383 3.66428,-2.551941 0.0862,-1.096327 -0.47602,-1.912339 0.17401,-2.943981 0.74977,-1.213626 0.3128,-2.565535 0.39273,-3.945144 1.05893,-0.895848 1.86511,-1.857989 2.94382,-2.746788 0.65005,-0.867492 0.73385,-2.0496 1.5639,-2.875965 0.14619,-1.582518 1.41343,-2.491883 1.94746,-3.863959 -0.12661,-1.304698 -2.3279,-0.394245 -1.85514,-2.207977 -0.75938,-1.225645 0.65402,-3.014197 -1.17323,-3.495979 1.18879,-1.022128 0.60882,-3.134479 -0.36599,-4.231974 -1.21777,-0.08286 -2.74868,-0.02479 -3.42791,1.245521 -1.08563,0.143531 -2.56354,-0.126257 -2.98345,1.330473 -0.47302,1.463956 -1.07134,0.492215 -1.64718,-0.183994 -1.2581,-0.826275 -1.38653,0.638231 -0.88954,1.426004 -1.72337,0.593995 -1.79128,-2.889295 -3.68008,-2.066949 -2.00576,0.245049 -3.85274,1.157801 -5.888,1.276615 -1.4784,0.325826 -3.08347,0.513215 -3.94969,1.940327 -1.70499,0.512249 -3.42954,1.147384 -5.24999,1.219911 -1.08223,1.822948 -2.850587,-0.800097 -4.080389,0.619821 -2.114185,0.107794 -1.525476,2.385783 -0.970039,3.679973 -0.577985,1.376244 -0.627105,2.819975 -0.479968,4.231942 -0.571685,1.55807 -0.602535,3.240984 -1.904867,4.415938 -0.642541,1.840852 -1.912723,3.197863 -2.986344,4.783937 -0.03939,1.387591 -0.863661,2.42095 -1.531829,3.495958 0.558585,1.178181 -0.472551,2.812653 1.124339,3.495958 1.425027,0.791863 3.031093,1.974934 2.345401,3.863924 -0.473395,1.236285 -0.630904,2.513447 -1.568082,3.495956 -0.595508,1.746512 -1.385983,4.427955 -3.74904,4.065405 -2.744483,0.570291 -3.868333,3.933732 -6.807914,4.098327 -1.541521,-0.34983 -2.653387,0.599551 -3.863957,1.297889 -2.308217,0.114901 -4.608216,0.03268 -6.806237,-0.6038 -1.864103,-0.208362 -3.778903,-0.02209 -5.519914,-0.784505 -2.843398,0.528129 -5.667963,-0.269987 -8.463878,-0.792438 -3.617796,-0.116446 -7.259061,0.940869 -10.303894,2.934766 -1.306734,0.528765 -2.624399,-0.769712 -4.047924,-0.193466 -1.192601,0.01849 -1.722313,-1.365356 -2.943923,-0.824463 -0.592021,-0.629906 -1.439167,-1.44672 -2.21324,-0.364979 -1.880182,1.659631 -4.329422,-0.204306 -6.434579,-0.327919 -1.570609,-0.622038 -2.620346,-2.138104 -4.287517,-2.432288 -0.530397,-1.395823 -1.618913,-2.298301 -2.663422,-3.311959 0.115936,-1.78702 -3.273111,-2.473442 -3.285993,-0.367964 -2.448272,0.974981 -1.253037,4.12932 -2.228868,6.071896 -0.0024,1.616557 -1.215878,3.16834 -0.413917,4.867571 0.756354,1.277176 0.111851,3.000381 0.759011,4.14831 1.27773,0.743984 0.947514,2.583667 2.512077,2.943974 1.383498,0.83858 2.725382,2.100532 2.627682,3.863945 0.464939,1.337157 1.569599,0.498182 2.381145,0.493438 1.328372,1.094597 2.646984,2.10413 4.415919,2.36556 1.708653,0.202882 3.667697,-0.01376 4.967949,1.392589 1.764901,0.205574 3.520676,0.420682 5.335924,0.267507 1.309396,-0.164327 2.471608,0.240475 3.679944,0.538663 2.443035,-0.426845 4.968383,0.04445 7.359893,-0.901454 1.896536,-0.403871 3.816197,-0.186767 5.519944,0.675706 1.702565,0.278066 3.062692,1.667317 4.783923,2.013492 1.654114,1.753397 4.230989,1.602682 6.071918,2.954178 1.197641,0.44674 2.172192,1.28499 3.261778,1.97564 1.124056,1.50893 3.170946,1.86242 4.323019,3.31196 1.670587,0.0265 2.574927,1.58761 4.206364,1.84043 0.839266,1.12638 2.163726,0.68857 3.319603,0.73662 1.830313,0.49558 3.885962,0.48945 5.596593,1.10379 0.764292,1.37333 2.647257,0.0209 3.396282,1.38733 0.230068,0.12523 0.498377,0.0546 0.692851,-0.10011 z"
       style="fill:none;stroke:#000000;stroke-width:0.2;stroke-miterlimit:4;stroke-dasharray:none;stroke-opacity:1" />
    <path
       id="elev-3000"
       d="m 119.36245,58.902173 c 0.3995,-0.693345 1.30789,-3.104856 -0.2744,-2.207969 -0.0466,0.41392 -0.38369,2.506255 0.2744,2.207969 z M 83.46809,101.03756 c 0.93603,-1.044519 -0.61626,-2.318244 -1.308436,-2.821346 0.85253,-1.555393 3.177371,-0.634093 3.748979,-2.514651 0.626137,-0.766312 3.06609,0.910146 1.402982,0.662419 -1.847027,0.122232 -0.893937,2.781361 0.735971,2.155709 1.024199,0.610039 2.169519,-1.006922 3.127946,0.255801 0.601805,0.992998 1.852414,-0.237034 2.57597,-0.313705 -0.153874,-1.31875 -0.719275,-3.77879 1.334005,-3.67996 1.686291,-0.452327 1.192118,-2.521987 2.713996,-3.189309 1.421315,-0.944404 4.289347,-1.149829 3.756637,-3.434625 0.0347,-1.678945 -0.0804,-3.418776 1,-4.783923 0.27346,-0.957768 -0.56787,-2.302309 0.82095,-2.575954 0.47401,-1.322642 2.53871,-0.899047 2.58339,-2.575952 0.83983,-0.212389 1.63476,0.07282 2.50965,-0.290446 1.11959,0.06758 1.72187,-1.193803 2.84598,-1.181418 -0.0333,-1.87951 1.19453,-3.544292 2.23785,-4.967933 0.01,-1.965118 -0.0906,-4.023431 1.20098,-5.703924 0.24734,-2.061133 1.41704,-3.774977 2.00314,-5.703927 0.7523,-1.439694 1.71778,-2.792791 1.46237,-4.477242 1.5778,-1.82362 2.62226,-4.106911 4.68348,-5.458651 0.81498,-0.972428 0.68677,-2.255911 -0.34062,-2.943976 0.0592,-1.214644 1.92458,-1.525778 1.26318,-2.943982 1.40221,-1.162246 2.84277,-3.652594 1.38663,-5.247166 -0.75178,-0.183962 -1.77897,2.135126 -2.02399,0.414001 0.92812,-1.934305 -1.99775,-1.634937 -2.94346,-0.856004 -1.15372,-0.26254 -2.4921,-1.286906 -2.75961,0.615937 -1.71644,0.0011 0.4762,-2.396831 -1.4719,-1.77691 -0.41243,-1.184357 -1.32837,-0.682765 -1.52486,0.409996 -0.0143,1.230196 -0.62403,2.313408 -0.11348,3.495974 -0.40614,1.025557 0.97994,1.712767 -0.20095,2.606646 -1.31002,0.321995 -2.79507,0.673706 -4.23196,1.073309 -0.95473,-0.818134 -1.97903,-0.736918 -3.12795,-0.586018 -1.1966,-0.203168 -2.44372,-0.449178 -3.49602,0.217834 -1.35707,-0.843375 -3.0735,0.266501 -4.415974,-0.507841 -1.397291,0.57032 -1.545188,2.615927 -2.803448,3.451711 -0.382913,2.143686 -2.017445,3.730742 -2.943656,5.51991 -0.116581,1.896729 -2.575383,4.069064 -0.228098,5.519954 2.918603,1.784911 3.278212,6.281044 0.958914,8.647782 -0.803188,0.936151 -0.319392,2.526951 -1.673559,3.127769 -1.111607,1.469507 -2.041141,3.031683 -3.612724,4.129117 -0.734827,0.791072 -2.625568,-0.767133 -2.39191,1.157547 -1.274363,2.129202 -4.362172,1.17289 -6.261131,2.256983 -1.266312,1.248349 -3.107791,1.611574 -4.594694,2.490782 -1.370599,0.06567 -2.179531,-1.516343 -3.690768,-1.018691 -1.480886,0.619882 -1.48649,-2.462183 -2.933102,-0.887881 -1.312465,-0.269695 -2.583912,-0.459237 -3.863943,-0.142539 -2.196444,-0.863885 -4.458459,-1.792816 -6.80793,-2.141442 -2.086824,-0.0232 -4.183869,-0.531963 -6.071907,0.677855 -1.369602,0.543538 -2.786073,1.183798 -3.224874,2.678152 -1.641988,1.566648 -4.198972,0.905465 -6.159055,0.529198 -1.611982,-0.667192 -3.389294,-1.012483 -4.599996,-2.342099 -1.452668,0.06938 -2.99811,0.454543 -4.415925,-0.299482 -1.806842,-0.514869 -3.801435,-0.647068 -5.335918,-1.833542 -1.037338,0.955956 0.945819,2.168049 0.801788,3.393713 0.01037,1.69373 0.08304,3.6816 1.406276,5.035735 1.622161,0.447463 2.517405,1.89688 3.128045,3.280997 1.490937,1.413865 2.588511,4.016783 5.151951,3.326316 2.073214,-0.752423 3.876934,0.859207 5.887923,0.643583 1.657078,0.529688 3.352213,-0.344398 4.967928,0.578916 2.740131,-0.416938 5.554824,-0.454851 8.279879,-0.07473 1.862222,0.448775 3.70719,0.994018 5.335889,1.96289 1.568775,-0.29756 3.167446,-0.434466 4.599934,0.328102 1.544958,0.03931 3.384336,0.559131 4.231966,1.898476 2.001035,0.386492 4.018735,1.390462 6.071912,1.148741 1.52927,-1.319429 3.688278,0.228889 3.218275,2.110486 0.06767,0.962838 1.178002,2.029158 2.137082,1.472928 z"
       style="fill:none;stroke:#000000;stroke-width:0.2;stroke-miterlimit:4;stroke-dasharray:none;stroke-opacity:1" />
    <path
       id="elev-4000"
       d="m 94.809465,57.614195 c -0.31637,-0.661974 -0.637585,0.366078 0,0 z m -2.989953,27.231596 c 1.276173,-0.889275 -1.046885,-0.511638 0,0 z m -28.818541,4.599932 c 2.443031,-0.632285 4.903454,-0.557448 7.382883,-0.774491 1.611744,0.451234 3.373642,0.692256 4.967917,-0.153389 1.478794,-1.138087 3.400468,-0.294066 4.783932,0.06011 1.133882,-0.51085 1.933776,-1.823763 3.127973,-1.938558 1.394669,1.032854 2.487557,-0.980551 3.863938,-0.996688 1.245483,-0.91686 2.820209,-0.949647 3.86394,-2.154316 1.267325,-0.575964 1.464662,-2.794897 3.311956,-2.357419 2.121358,-0.245407 2.242148,-3.03638 4.271619,-3.461502 0.548976,-1.105389 0.15554,-2.574369 0.87957,-3.507451 1.380671,-0.77469 3.658171,-1.619563 3.022451,-3.668424 0.0217,-0.891239 2.12944,-0.949609 0.53065,-1.471959 -1.11548,-0.692444 1.3525,-1.951263 -0.42458,-2.272758 -1.76594,-0.116687 -2.862213,-1.879042 -3.477731,-3.247242 0.459986,-1.152731 -1.778111,-1.236906 -1.74339,-2.575962 -0.385157,-0.505746 -1.381159,-2.441985 -0.96144,-0.919996 0.37524,1.658255 0.533413,3.342135 0.81661,4.967944 -0.06105,1.439738 -0.815557,2.571324 -1.576581,3.679949 -0.805836,1.584896 -2.559418,2.676842 -2.992691,4.538623 -0.99763,1.839312 -2.635854,3.272134 -4.599956,3.998256 -1.350531,2.067907 -3.945607,2.343647 -6.071844,3.05983 -1.100889,0.700584 -2.17402,1.363069 -3.127933,2.221071 -1.287534,0.611158 -2.534232,1.145863 -4.047942,0.780939 -2.344246,-0.105781 -4.65998,-0.471967 -6.99248,-0.617654 -0.991624,-0.975514 -2.18707,-1.337871 -3.495955,-0.803376 -2.212383,-1.153612 -4.721101,0.468805 -6.807904,-1.018341 -1.288799,-0.461368 -2.436905,-2.686408 -3.868671,-1.119169 -1.233943,0.854699 -0.55403,3.193663 -2.549589,3.311951 -1.742665,0.956212 -3.680299,0.126044 -5.541547,0.341436 -1.53765,-0.04857 -2.918595,-0.480462 -4.415933,-0.717174 -1.538713,0.393174 -2.726364,-0.907788 -3.863932,-1.530498 -0.845159,1.846546 1.653061,3.038943 3.127938,3.212579 1.074616,0.52311 0.888212,2.306359 2.57596,2.012701 3.23832,0.8616 6.281361,2.788846 9.751869,2.404475 1.991596,0.601983 4.040648,-0.353451 6.071904,0.303885 1.406687,0.06072 2.810312,0.453797 4.208989,0.412617 z m 15.478755,3.679947 c 1.574969,-0.70254 -1.569572,-0.281403 0,0 z"
       style="fill:none;stroke:#000000;stroke-width:0.2;stroke-miterlimit:4;stroke-dasharray:none;stroke-opacity:1" />
  </g>
</svg>
