<?xml version="1.0" encoding="UTF-8" standalone="no"?>
<svg
   xmlns:dc="http://purl.org/dc/elements/1.1/"
   xmlns:cc="http://creativecommons.org/ns#"
   xmlns:rdf="http://www.w3.org/1999/02/22-rdf-syntax-ns#"
   xmlns:svg="http://www.w3.org/2000/svg"
   xmlns="http://www.w3.org/2000/svg"
   width="150mm"
   height="150mm"
   viewBox="0 0 150 150"
   version="1.1"
   id="svg3600">
  <defs
     id="defs3594" />
  <metadata
     id="metadata3597">
    <rdf:RDF>
      <cc:Work
         rdf:about="">
        <dc:format>image/svg+xml</dc:format>
        <dc:type
           rdf:resource="http://purl.org/dc/dcmitype/StillImage" />
        <dc:title></dc:title>
      </cc:Work>
    </rdf:RDF>
  </metadata>
  <g
     id="layer1">
    <path
       id="elev-500"
       d="m 9.9316183,96.62162 c 0.8476987,-0.56425 1.6270037,-1.891318 0.1012367,-2.142254 -1.5683309,-0.06987 -2.5030958,2.420323 -0.3679991,2.260959 l 0.1839973,-0.06351 z m 85.8701247,37.35145 c 1.415703,-0.93577 -1.357792,-2.51654 0.341717,-3.54196 1.145871,-0.28799 2.469909,-1.28262 3.693059,-1.42597 1.331341,1.6912 1.903901,-1.16079 1.715851,-2.20802 -1.0999,-1.64269 0.29936,-3.55684 -0.41336,-5.33599 -0.36275,-1.40556 -1.308894,-3.09564 0.003,-4.41589 1.29335,-1.91688 2.63863,-3.81373 2.55343,-6.25546 0.3343,-1.37882 1.39401,-2.41969 1.5539,-3.86343 0.30875,-1.83914 3.48945,-1.64343 2.83347,-3.8641 -0.13348,-1.45198 -0.80541,-2.61112 -1.408,-3.864051 -0.32821,-0.972394 -0.39922,-1.982425 0.2509,-2.760004 -1.22924,-0.466876 0.78811,-1.569715 -0.0413,-2.575962 0.20387,-1.43352 1.75243,-2.795855 0.45949,-4.231976 -1.15953,-1.355447 -0.30608,-3.306834 0.4232,-4.599948 0.81,-1.381895 3.24547,0.211122 3.64725,-1.507273 1.964,-0.118713 3.51597,-2.183085 5.51973,-1.765165 1.18361,0.375835 2.35327,0.644546 3.12775,1.627584 1.17809,0.223676 2.05493,-0.345405 2.26141,-1.48287 0.97052,-1.534589 2.37698,-3.000923 1.76546,-4.968018 0.68646,-1.541097 0.22816,-3.349045 1.49887,-4.599969 0.75414,-1.301991 -0.84407,-2.715649 0.23264,-3.864485 0.14886,-1.050857 1.08143,-2.068436 1.78772,-2.913251 1.74984,-0.661598 2.02374,-3.159752 1.31211,-4.630592 0.80819,-0.575344 0.5519,-1.673172 1.44896,-2.085297 0.46551,-1.09964 1.56928,-1.052161 2.43913,-1.594599 0.43393,-1.198668 -0.37747,-2.854439 1.2415,-3.247538 -0.6313,-0.938059 0.20244,-1.255316 0.93136,-1.720382 0.0729,-0.709768 -1.57685,-2.327611 0.35656,-1.92977 2.21431,0.309266 2.37291,-2.918698 4.5999,-2.872243 1.32333,-0.33401 1.57086,-1.710428 2.37307,-2.557568 0.96561,-1.918756 0.92917,-4.213572 0.84251,-6.255919 1.0016,-0.855269 1.99101,-2.06951 2.32752,-3.312023 -0.11733,-1.727075 -2.47387,-1.962869 -2.78206,-3.750759 -0.91508,-0.99445 -2.0369,-1.971657 -1.47164,-3.492104 -1.7696,-0.874286 -1.86143,-2.967403 -1.58223,-4.717026 -0.48855,-1.862053 -0.83059,-3.859832 -2.09682,-5.351954 -1.41636,-0.581829 -2.42621,-2.150087 -4.23166,-1.832975 -1.09426,0.03037 -2.20228,0.163375 -2.94353,-0.822527 -1.9892,-0.210036 -3.6024,-1.678208 -5.58126,-1.560418 -2.36166,-1.284834 -4.35499,1.126957 -6.19461,2.269335 -1.38873,1.212705 -2.44995,2.769575 -3.68044,4.054749 -0.99309,0.709538 -2.26906,0.584469 -3.34265,0.851877 -1.24811,-1.146384 -3.21049,-0.891961 -4.75322,-1.037635 -1.35857,0.613257 -1.99249,1.956999 -3.12805,2.933753 -0.65225,0.658703 -1.73585,0.57992 -2.0239,1.679785 -1.32989,1.545315 -3.693569,1.379929 -5.220887,2.31218 -0.939252,1.03641 -2.651517,1.874031 -4.024884,1.288016 0.09556,2.631699 2.249495,4.673944 2.339795,7.359954 0.761788,2.908083 -0.23532,5.947045 -0.615267,8.831852 -1.504559,1.866432 -2.008243,4.252389 -3.193434,6.255724 -1.389459,1.541991 -1.999985,3.733104 -2.368481,5.703935 -0.462645,1.620009 0.393554,3.77572 -1.45392,4.810249 -1.69478,2.513931 -4.955958,2.909107 -7.72786,2.604868 -1.038378,0.456882 -1.798389,1.208093 -2.943976,0.563679 -2.460056,0.553527 -4.545592,2.489163 -7.175894,2.151356 -1.240356,0.833236 -2.576621,1.201235 -4.047959,0.874631 -2.000048,-0.145246 -4.202459,-1.049804 -5.887907,0.328022 -2.948411,0.250769 -5.773899,1.3604 -8.647864,2.147014 -2.325981,1.391039 -5.163357,0.752081 -7.54389,1.851472 -1.202539,0.389494 -2.344158,-0.259405 -3.508227,-0.05983 -1.333177,-1.183106 -3.161699,-0.252609 -4.587671,-1.066025 -1.188231,0.445815 -2.330598,-0.665226 -3.495942,0.26594 -1.647008,0.112663 -3.300474,-0.97297 -4.509746,-1.959824 -0.6903,-1.366123 -1.132806,-3.001237 -2.905982,-3.311993 -1.639198,-1.350402 -3.87328,-2.577341 -6.01696,-2.182133 -1.829243,0.939607 -4.289669,0.222999 -5.703931,1.946418 -1.440599,0.02852 -1.629171,1.87765 -3.127975,1.762538 -1.1185618,0.582814 -0.2570671,2.054614 -0.7865676,3.073445 0.1007742,1.667801 -3.0134417,1.137425 -2.2381774,3.311943 0.9961473,2.862889 -1.1320727,5.566352 -0.3673419,8.463904 -0.043083,1.976983 -1.0264156,3.780616 -1.1718417,5.703919 0.8097729,1.347304 2.3214928,2.188224 3.5418217,3.127976 1.4911708,0.778097 2.1980589,2.5453 3.4574569,3.495942 0.265939,1.685777 2.019283,1.703218 3.349178,2.023952 1.012172,0.734054 2.249193,1.112398 3.415456,0.735962 0.991989,0.500589 2.113095,-0.133723 2.943939,0.770646 1.301943,-0.27605 2.719197,0.310799 3.863949,-0.480837 2.019589,1.718333 4.807022,2.052555 7.374597,2.286148 2.3661,0.142637 4.534284,1.611935 6.977187,1.843315 2.637401,0.98347 5.414306,-0.20668 8.095882,0.24321 2.286622,0.52145 4.572042,1.38534 6.991916,1.054 2.041721,0.74366 4.036703,1.66816 6.071902,2.44097 2.502304,-0.68719 3.400745,2.40065 5.519938,2.97666 1.666161,1.10577 2.941034,2.81912 4.424786,4.14037 0.549399,0.84704 1.228394,1.5528 1.502619,2.57593 0.839875,0.94723 2.503331,1.25491 2.352685,2.81512 1.106734,0.2554 1.181701,1.10281 0.920004,2.03014 0.579999,1.47143 2.282132,0.51961 2.943969,1.79063 1.991018,1.6861 4.308684,3.23069 5.382014,5.69136 1.481182,0.7888 1.063185,3.60598 3.266006,3.11527 1.72063,-0.81408 3.105041,0.64653 4.415922,1.50926 1.051232,0.12196 3.671607,-1.30071 3.128036,0.71151 0.202637,0.53417 0.185484,1.92172 1.12635,1.46925 z m -9.226146,-4.88484 c -1.947431,-0.57579 1.336564,-1.16992 0,0 z"
       style="stroke:#000000;stroke-width:0.2;stroke-miterlimit:4;stroke-dasharray:none;stroke-opacity:1;fill-rule:nonzero;fill:none" />
    <path
       id="elev-1500"
       d="m 93.23629,117.41332 c 1.346091,-0.6104 3.438821,-0.0497 3.735085,-2.02372 0.782604,-1.07214 2.189478,-1.54045 2.484054,-2.995 0.554111,-1.45883 2.743401,-1.00708 2.729781,-2.70854 -0.0193,-1.56353 2.54846,-2.34976 1.25568,-4.04784 -0.82511,-1.38641 1.73421,-0.41804 1.62414,-1.84069 1.4437,-1.17048 -0.0574,-2.90764 0.1504,-4.415885 -0.25674,-1.885191 -2.31745,-4.132667 -0.47995,-5.703893 -0.53901,-1.436476 1.85255,-2.013836 1.34522,-3.13605 -2.35871,-1.077386 -2.73612,-4.213098 -1.08279,-6.063779 0.34463,-1.220174 -0.65233,-2.831968 1.45178,-2.423351 0.81555,-0.425281 1.73651,0.09601 2.57598,-0.572161 1.6586,-0.484013 3.70977,0.0738 4.96785,-1.531681 1.7223,-0.778449 3.55611,0.59446 5.25224,0.111292 -0.80892,-1.640713 1.47661,-1.692336 1.64272,-3.127981 0.91813,-1.462807 0.99229,-3.241231 0.35304,-4.783897 0.32837,-1.210072 0.27784,-2.788118 1.61233,-3.311959 0.0492,-0.968407 -1.87278,-0.698294 -1.24784,-2.207974 0.69529,-0.674159 1.42754,-1.283364 0.91229,-2.391953 1.24351,-1.118269 2.08655,-2.776003 3.22819,-4.047963 0.11923,-1.08186 -2.57467,-2.388415 -0.34569,-2.651162 1.04864,0.325969 2.03705,0.260948 2.39197,-0.889947 1.50426,-0.05272 1.07186,-1.239949 0.34373,-1.978925 -0.51204,-1.38607 1.49862,-1.930575 1.49619,-3.367177 0.75703,-1.16055 -1.11084,-2.587194 0.24188,-3.440772 0.10485,-1.422164 1.86309,-1.936744 2.7138,-2.943902 1.44055,-0.650343 -0.0189,2.584225 2.01001,1.940862 1.79476,-0.195501 0.0993,-3.061912 2.02458,-2.538159 1.0718,0.140814 2.94206,-1.577681 1.10426,-1.855298 -1.12622,0.55653 -2.65953,1.236599 -3.59816,0.0606 0.47406,-0.903909 0.87007,-1.974492 1.38996,-2.838825 1.41238,0.08521 1.82596,-1.229564 1.84017,-2.325415 1.54309,-1.611839 -2.66571,-0.55598 -1.99177,-2.379652 0.8161,-0.699865 0.35516,-1.527085 0.86356,-2.391945 0.30272,-2.045208 0.0628,-4.458075 -1.59094,-5.887955 -0.65126,-0.723911 -1.79562,-1.266033 -2.06512,-2.441337 -0.88093,-1.532014 -2.57128,-0.752919 -3.67983,-0.0022 -0.85148,-0.462941 -0.87581,-1.877138 -2.25354,-1.604472 -1.37541,0.10983 -2.34015,1.450872 -3.44999,2.038167 -0.22661,1.71301 -2.45145,1.187529 -3.49588,0.741503 -1.18927,0.19495 -0.92515,1.903584 -2.39135,1.703683 -1.6502,0.393452 -3.45739,-0.60149 -5.15194,0.233609 -2.76188,0.843071 -4.88887,3.88334 -8.09615,2.92322 -1.98445,0.837872 -4.179605,1.566608 -6.308453,1.927648 -0.563808,1.191556 -1.966169,0.06037 -2.4038,0.551977 0.08581,2.255046 1.175157,4.384188 1.291357,6.623904 -0.949605,2.801168 -0.318566,6.194965 -2.642746,8.463836 -0.781534,2.188532 -3.00583,3.583048 -3.12362,6.072097 -1.542219,1.31931 -0.823714,3.29565 -0.796266,5.025131 0.843502,1.329108 3.472055,1.633902 3.023983,3.622799 -0.853315,1.542396 -1.462984,3.142925 -2.28818,4.795226 -0.78337,1.800053 -2.756484,1.66342 -4.415869,2.029704 -1.391094,0.696042 -1.818439,2.470258 -3.495942,2.78498 -1.872435,0.33029 -3.520901,1.442971 -5.335884,1.831962 -2.747235,0.250436 -5.408488,-1.613448 -8.095877,-0.463029 -1.889556,-0.517514 -3.800639,-0.625295 -5.703906,-0.104005 -2.065173,-0.195739 -4.112715,0.007 -6.07196,-0.819113 -3.635607,0.138104 -7.494098,0.180054 -10.671833,2.205569 -1.469758,1.064427 -2.949215,0.166055 -4.415899,-0.297701 -1.314193,-0.129548 -2.458664,-0.44491 -3.679944,-0.833334 -1.164404,-0.10236 -1.762162,0.931457 -2.575959,1.256434 -2.827727,0.171474 -5.51112,-1.080039 -7.911886,-2.524349 -1.649788,-0.234326 -1.473546,-2.206964 -2.94394,-2.71539 -0.574278,-1.161439 -0.665711,-3.069069 -2.462512,-2.91465 -1.179521,-0.871791 -2.44519,-1.702678 -3.977477,-1.248944 -1.887776,-0.05615 -2.578569,1.949106 -3.508293,3.272903 -1.418588,1.978888 -0.85252,4.671097 -1.858516,6.807915 0.0402,1.021603 -1.362551,1.360514 -0.932665,2.575954 -0.613134,1.641337 -0.732135,3.361507 -1.767986,4.783918 -1.0073406,2.385883 1.747269,3.186202 3.099207,4.427482 0.914642,0.500814 1.809106,0.774962 2.223295,1.828442 0.948099,1.388248 2.488167,2.594595 4.245654,2.759994 1.072379,1.310134 2.599695,1.801555 4.233583,1.656011 1.726936,0.846836 3.440651,1.677762 5.30527,2.099799 2.071224,0.207587 4.140179,0.588587 6.07192,1.176912 1.335035,-0.300244 2.489097,0.519567 3.863948,0.197768 2.192026,0.469514 4.372068,0.887936 6.623905,0.410771 2.202796,0.08261 4.325689,-0.645946 6.474423,-0.757121 2.024105,0.977849 4.426974,0.69393 6.221402,2.163545 2.432489,0.661842 4.685009,1.875269 6.814978,3.172379 2.267408,1.85174 4.723088,3.59256 6.800842,5.5743 2.981418,1.0847 5.48621,3.0518 8.322302,4.36246 1.135155,0.53641 2.317711,0.83843 3.453477,1.43537 1.752359,0.35192 3.574669,0.2019 5.151919,1.15958 1.263311,0.26518 1.997919,1.51387 2.207987,2.58862 0.334516,0.19879 0.76761,0.29825 1.140011,0.15073 z"
       style="stroke:#000000;stroke-width:0.2;stroke-miterlimit:4;stroke-dasharray:none;stroke-opacity:1;fill-rule:nonzero;fill:none" />
    <path
       id="elev-2500"
       d="m 130.05411,41.238434 c 0.78472,-1.644975 -1.65839,0.561697 0,0 z M 89.979541,104.5335 c 0.526114,-0.69252 0.782093,-2.34846 1.747986,-1.0425 0.674971,1.30164 1.448377,-0.59276 2.391955,-0.42902 1.452449,-2.22835 5.252381,-1.52615 6.133228,-4.416435 1.81143,-2.086401 1.81095,-5.191675 2.88294,-7.446476 -0.31683,-1.326967 -1.28179,-2.35994 -0.79996,-3.77731 -0.32064,-1.282795 -0.15348,-2.502432 0.84434,-3.311946 0.24244,-1.389308 -0.13504,-3.262003 1.61238,-3.792291 1.15978,0.830273 1.24373,-2.387783 2.20831,-0.78521 0.69468,0.04282 1.6483,-0.578839 2.59373,-0.390427 1.18095,-1.011986 2.66575,0.424744 3.84632,-0.748932 1.66728,-0.09601 3.38198,-1.028467 3.18677,-2.930988 1.61694,-1.474004 1.02552,-3.678655 1.66677,-5.519915 0.0633,-1.782484 1.74213,-3.211427 1.40262,-5.045082 -1.42679,-0.788819 -1.02301,-2.651919 0.008,-3.602765 -0.32931,-1.890644 2.17306,-2.203083 2.03154,-4.047977 0.13343,-1.702102 3.41484,-1.230165 2.35496,-3.312001 -0.39318,-1.124951 -0.13523,-2.630509 0.34327,-3.86393 0.83841,-0.658416 1.42236,-1.303325 0.59858,-2.306096 -0.2689,-1.631857 3.01591,-1.635032 1.65095,-3.397858 -0.12445,-1.553475 1.64699,-1.463418 2.45118,-2.023978 0.22861,-1.348076 -2.01435,-1.45107 -1.23979,-2.943958 0.67844,-1.15031 -0.13491,-2.230442 -0.4024,-3.311959 -1.31857,0.225555 -1.30887,-0.980577 -1.54109,-1.535977 -1.13722,-1.126768 -2.90593,-0.547876 -4.04793,0.303228 -1.40374,-0.559609 -2.64108,1.576253 -3.90205,0.128913 -1.02561,-0.234109 -1.28557,-1.892564 -2.06266,-1.839918 -0.39579,1.909085 -2.26583,2.718443 -3.23482,4.328779 -1.58248,0.02641 -3.15155,1.553652 -4.5999,0.665523 -1.79115,0.725696 -3.57314,1.443334 -5.52003,1.657397 -1.63095,0.507617 -3.583352,-0.0054 -4.980265,1.076394 -0.238707,1.32688 0.321125,2.809423 -0.651867,4.047924 -0.599014,1.929342 -1.862011,3.548528 -2.647622,5.409959 -1.187312,1.397196 -2.039004,2.976481 -2.392595,4.774144 -0.627216,1.147453 -1.41795,3.066103 0.183745,3.818909 3.139982,1.392912 3.34291,5.815232 1.07918,8.076493 -0.809303,2.147531 -1.897462,4.735854 -4.207021,5.523617 -0.773491,0.955555 -2.406996,-0.08389 -2.847816,1.468334 -0.953238,1.334624 -2.140757,2.553152 -3.96004,2.231641 -1.474684,0.07773 -2.845144,0.4601 -3.768799,1.632183 -1.676133,0.837443 -3.501337,1.029348 -5.247097,0.237434 -1.633091,0.797309 -1.611152,-1.84722 -3.311967,-1.380831 -2.066272,0.676497 -4.142801,-0.634984 -6.255904,-0.07168 -2.814743,-0.590908 -5.555771,-1.662359 -8.463833,-1.42004 -2.083784,-0.157951 -3.97289,1.153011 -5.887902,1.738148 -1.111139,0.705131 -1.788123,2.556013 -3.311946,1.719723 -1.248508,0.08267 -2.636377,0.709017 -3.495955,-0.684329 -1.554118,-0.138213 -3.106981,-0.294452 -4.320543,-1.425869 -1.268592,0.12871 -2.772209,1.596454 -3.975372,0.184002 -1.340223,-0.506759 -2.964413,-0.03339 -4.031946,-1.226486 -1.487241,-0.715746 -2.821009,-1.857254 -4.231964,-2.692467 -0.957692,-1.779143 -1.485712,1.590212 -1.594669,2.447134 -0.104295,1.973922 -0.746106,4.071451 0.31982,5.887919 0.476533,1.362741 1.816562,2.381901 2.254163,3.679952 -0.971388,1.310319 0.170469,3.158789 1.780665,2.759958 1.44191,0.639797 2.122574,1.893409 2.575941,3.311935 1.631103,0.184378 2.651521,1.881585 4.41593,1.777275 1.235305,0.894517 2.68002,0.464236 4.047929,0.863661 2.557219,-0.822954 5.121759,0.817491 7.727854,0.200261 2.60994,0.64421 5.095479,-0.868506 7.727882,-0.314272 2.870234,-0.203497 5.26125,1.669978 7.911806,2.524164 1.851692,1.263423 4.294719,0.298659 6.071896,1.802752 1.311685,0.317886 2.015263,1.685928 3.495934,1.451232 1.245291,0.617497 1.858505,2.240005 3.495956,1.656445 1.425101,0.0544 1.569931,1.84991 2.943997,2.18173 1.335527,1.56388 3.443298,1.75606 5.335932,1.52612 1.310357,0.2266 2.492108,-0.45166 3.679952,0.073 0.865634,-1.00223 1.066485,0.26372 1.931683,-0.12737 z"
       style="stroke:#000000;stroke-width:0.2;stroke-miterlimit:4;stroke-dasharray:none;stroke-opacity:1;fill-rule:nonzero;fill:none" />
    <path
       id="elev-3500"
       d="m 115.56434,49.886306 c 1.33432,-0.552111 1.8207,-2.351236 3.39449,-2.213295 1.49415,-0.721331 0.90513,-2.715189 2.576,-3.231195 1.48168,-1.151009 -1.56818,-1.048115 -1.30832,-2.467343 -0.64019,-1.128262 -1.78746,0.710576 -1.08339,1.471981 -1.72048,0.40863 -2.04933,2.837066 -3.31187,4.047937 0.44456,0.697015 -1.57111,2.714093 -0.26691,2.391915 z m -2.02705,3.863946 c 1.50104,-0.22628 0.5256,-2.04656 -0.48238,-0.920004 -0.5349,0.372189 -0.19203,1.336603 0.48238,0.920004 z m -0.45385,4.04794 c 0.24629,-1.08416 2.45385,-2.159675 0.72389,-3.018708 -1.08893,-0.610611 -2.0241,1.094192 -2.32365,1.914654 0.24775,0.443759 1.10474,1.423755 1.59976,1.104054 z M 78.847719,94.597648 c 1.553551,-0.10101 2.518177,-1.271641 2.484049,-2.75997 0.99573,-0.361251 2.195869,-0.121348 3.035956,-1.042662 1.86895,-0.524986 3.79535,-0.56729 5.151908,-2.122022 1.508472,-0.195487 3.449624,-0.754607 4.636741,-0.883189 0.09072,1.979813 2.376395,0.248364 0.929153,-0.552 0.972794,-0.874205 2.302928,-1.263145 2.897891,-2.447195 1.465686,-0.663639 2.772323,-1.977369 3.555923,-3.256767 -0.141,-1.566111 1.30768,-2.887546 2.73077,-2.943915 0.39046,-1.176428 1.43064,-1.808023 2.46338,-2.207925 0.36272,-1.520295 0.44766,-3.22757 1.18554,-4.634425 0.77947,-1.87252 1.52038,-3.706739 3.2426,-4.933416 0.47197,-1.047938 0.79494,-2.98391 -0.85052,-3.189285 -0.47058,-1.20587 -2.42563,-1.192725 -1.86303,-2.882648 -0.0201,-1.016503 1.51476,-3.15069 -0.4675,-2.57597 0.22435,-1.805575 -2.30448,-2.348908 -3.00534,-3.90075 -1.39397,-0.632902 -2.58076,-1.343025 -3.86404,-2.18645 -1.612736,-0.340098 -3.407159,-0.606883 -4.415952,-2.069957 -0.989734,1.091356 -2.32248,2.143524 -2.663235,3.741258 -0.448828,1.59775 -2.481516,3.678669 -0.399822,4.96796 2.382769,1.70367 2.770322,5.054568 2.485877,7.727944 -1.254022,1.092274 -1.879664,2.601865 -2.735361,3.981932 -1.649394,1.375529 -1.727324,3.837781 -3.679999,4.969007 -1.129274,0.609216 -2.659073,0.544804 -3.311948,1.939063 -1.218139,0.953698 -2.679714,1.716217 -4.231945,1.33537 -1.448107,0.09389 -2.124204,1.252617 -3.311951,1.885442 -1.662221,0.53521 -2.724811,2.8306 -4.78392,1.818868 -0.836822,-0.464207 -1.392685,-1.575189 -2.575976,-0.812909 -1.877155,0.616037 -3.431746,-0.418359 -4.783963,-1.564902 -2.526977,0.945457 -4.951026,-0.629483 -7.175915,-1.61925 -2.490361,-0.459311 -5.357381,-1.493599 -7.543884,0.403117 -1.61235,0.279032 -0.980972,2.375503 -2.575986,2.658496 -1.535994,1.172009 -3.624993,0.484963 -5.335911,0.509463 -2.313318,-0.68055 -4.696727,-1.104723 -6.548911,-2.807631 -1.41329,0.248256 -2.888861,0.06713 -4.306892,-8.5e-5 -1.075637,1.123254 0.828455,2.41095 0.926809,3.679952 1.095631,1.209228 1.326163,3.163181 3.13645,3.495971 1.365234,1.391558 2.960849,2.41975 4.952592,2.594886 2.610408,0.429252 5.235641,0.588457 7.727887,1.531143 2.632747,-0.05769 5.307716,-0.147415 7.911872,0.129802 2.768703,0.339495 5.476991,1.040273 8.279868,0.609264 2.007351,0.406165 4.299831,0.592331 6.071918,1.440805 0.805481,0.777692 1.712862,2.33296 2.943934,1.319506 1.190098,0.457274 2.377098,0.86334 3.680883,0.654074 z"
       style="stroke:#000000;stroke-width:0.2;stroke-miterlimit:4;stroke-dasharray:none;stroke-opacity:1;fill-rule:nonzero;fill:none" />
    <path
       id="elev-4500"
       d="m 81.13746,83.373811 c 1.684983,-0.549907 -0.525108,-1.463437 -0.357761,3e-6 0.107701,0.07335 0.243276,0.0326 0.357761,-3e-6 z m -2.216142,1.47198 c 1.19379,-0.08527 1.478312,-1.613746 0.294402,-0.499422 -0.932336,-0.05644 -2.522098,-0.178059 -0.919977,0.665017 0.220382,0.03089 0.428466,-0.08629 0.625575,-0.165595 z m -21.315037,2.391963 c 1.987206,-0.32118 4.013777,-0.263382 5.983846,-0.183742 2.111314,-1.623148 4.977942,0.09367 7.027968,-1.472023 1.032894,-1.652892 -1.067265,-1.575387 -2.074164,-1.687637 -1.62497,-0.389469 -3.076614,-1.791287 -4.783915,-0.938643 -1.631339,-0.932485 -2.879619,0.539332 -3.679896,1.745945 -2.410341,1.600026 -5.43799,1.168771 -7.911891,-0.05063 -1.347632,0.441621 -3.061616,0.355203 -4.231937,0.759081 1.721549,1.898711 4.45946,0.841476 6.623886,1.673143 1.037411,-0.128135 2.020525,0.370242 3.046103,0.154506 z"
       style="stroke:#000000;stroke-width:0.2;stroke-miterlimit:4;stroke-dasharray:none;stroke-opacity:1;fill-rule:nonzero;fill:none" />
  </g>
</svg>
